<svg role="img" viewBox="0 0 15 15" xmlns="http://www.w3.org/2000/svg"><path d="m 9.567,2.454 h -0.03 l -0.202,0.2 c 2.073,0.6 3.076,1.537 3.076,1.537 C 11.075,3.523 9.871,3.189 8.667,3.054 7.797,2.919 6.927,2.99 6.192,3.054 h -0.2 c -0.47,0 -1.47,0.2 -2.81,0.735 -0.467,0.203 -0.735,0.336 -0.735,0.336 0,0 1.002,-1.002 3.21,-1.537 L 5.522,2.453 c 0,0 -1.672,-0.064 -3.477,1.27 0,0 -1.805,3.144 -1.805,7.02 0,0 1,1.74 3.743,1.806 0,0 0.4,-0.533 0.805,-1.002 -1.54,-0.468 -2.14,-1.404 -2.14,-1.404 0,0 0.134,0.066 0.335,0.2 h 0.06 c 0.03,0 0.044,0.015 0.06,0.03 v 0.006 c 0.016,0.016 0.03,0.03 0.06,0.03 0.33,0.136 0.66,0.27 0.93,0.4 0.466,0.202 1.065,0.403 1.8,0.536 0.93,0.135 1.996,0.2 3.21,0 0.6,-0.135 1.2,-0.267 1.8,-0.535 0.39,-0.2 0.87,-0.4 1.397,-0.737 0,0 -0.6,0.936 -2.205,1.404 0.33,0.466 0.795,1 0.795,1 2.744,-0.06 3.81,-1.8 3.87,-1.726 0,-3.87 -1.815,-7.02 -1.815,-7.02 C 11.31,2.517 9.78,2.471 9.51,2.471 l 0.056,-0.02 z m 0.168,4.413 c 0.703,0 1.27,0.6 1.27,1.335 0,0.74 -0.57,1.34 -1.27,1.34 -0.7,0 -1.27,-0.6 -1.27,-1.334 C 8.467,7.468 9.038,6.87 9.735,6.87 Z m -4.543,0 c 0.7,0 1.266,0.6 1.266,1.335 0,0.74 -0.57,1.34 -1.27,1.34 -0.7,0 -1.27,-0.6 -1.27,-1.334 0,-0.74 0.57,-1.338 1.27,-1.338 z"/></svg>